<?xml version="1.0" standalone="no"?><!DOCTYPE svg PUBLIC "-//W3C//DTD SVG 1.1//EN" "http://www.w3.org/Graphics/SVG/1.1/DTD/svg11.dtd"><svg t="1717155222278" class="icon" viewBox="0 0 1024 1024" version="1.1" xmlns="http://www.w3.org/2000/svg" p-id="5634" xmlns:xlink="http://www.w3.org/1999/xlink" width="200" height="200"><path d="M120.184243 923.405931c-10.82044 0-19.591197-8.770757-19.591197-19.591197L100.593046 120.184243c0-10.82044 8.770757-19.591197 19.591197-19.591197l509.35987 0c10.82044 0 19.591197 8.770757 19.591197 19.591197l0 278.574646c12.817933-2.084475 25.877367-3.38305 39.181371-3.810792L688.316681 100.594069c0-21.639856-17.541515-39.181371-39.181371-39.181371L100.594069 61.412698c-21.639856 0-39.181371 17.541515-39.181371 39.181371l0 822.812885c0 21.639856 17.541515 39.181371 39.181371 39.181371l448.611298 0c-19.548218-11.029194-37.623899-24.25338-54.174853-39.181371L120.184243 923.406954z" fill="#e53b16" p-id="5635"></path><path d="M414.046061 845.043189l18.389836 0c-5.132904-9.258874-9.878998-18.754133-14.040784-28.572756-1.463328 0.569982-2.864234 1.257643-4.349051 1.784646L414.046061 845.043189z" fill="#e53b16" p-id="5636"></path><path d="M400.892483 760.350275c-7.877411 3.920286-16.632819 6.330172-26.027793 6.330172-32.460296 0-58.772568-26.312272-58.772568-58.772568 0-32.460296 26.312272-58.772568 58.772568-58.772568 8.232498 0 16.052604 1.720178 23.166629 4.77577 1.914606-13.085016 4.568039-25.904996 8.095375-38.392402-9.869788-3.342118-20.262486-5.565762-31.260981-5.565762-54.098105 0-97.953939 43.855834-97.953939 97.953939 0 54.098105 43.855834 97.953939 97.953939 97.953939 13.090133 0 25.532513-2.671852 36.94647-7.330966C407.453922 786.109961 403.621641 773.45064 400.892483 760.350275z" fill="#e53b16" p-id="5637"></path><path d="M296.500924 845.043189l39.181371 0 0-26.78811c-9.064446-3.220345-17.762549-7.164167-25.6461-12.393261l-13.535271 0L296.500924 845.043189z" fill="#e53b16" p-id="5638"></path><path d="M414.046061 570.772568l0 20.815071c2.65241-7.067976 5.522784-14.007015 8.676613-20.815071L414.046061 570.772568z" fill="#e53b16" p-id="5639"></path><path d="M355.273493 823.477011l0 21.565155 39.181371 0 0-21.565155c-6.40385 1.079588-12.881378 1.974981-19.591197 1.974981C368.154871 825.451992 361.678366 824.556599 355.273493 823.477011z" fill="#e53b16" p-id="5640"></path><path d="M276.910751 772.735349c-5.229095-7.883551-9.171893-16.581654-12.393261-25.6461l-26.78811 0 0 39.181371 39.181371 0L276.910751 772.735349z" fill="#e53b16" p-id="5641"></path><path d="M570.772568 422.722674l0-28.26781 0-39.181371-39.181371 0L218.138182 355.273493l-39.181371 0 0 39.181371 0 39.181371 0 39.181371 39.181371 0 276.892331 0C517.51255 452.53977 542.967292 435.604052 570.772568 422.722674zM218.138182 394.454864l313.451992 0 0 39.181371L218.138182 433.636235 218.138182 394.454864z" fill="#e53b16" p-id="5642"></path><path d="M453.227432 519.091512l0-7.091512-39.181371 0 0 39.181371 18.389836 0C438.642249 539.983331 445.705108 529.365506 453.227432 519.091512z" fill="#e53b16" p-id="5643"></path><path d="M237.729379 805.861818l39.181371 0 0 39.181371-39.181371 0 0-39.181371Z" fill="#e53b16" p-id="5644"></path><path d="M707.907878 512l-9.795087 0c3.307326 0 6.531763 0.325411 9.795087 0.493234L707.907878 512z" fill="#e53b16" p-id="5645"></path><path d="M695.816492 512.197498c0.779759-0.01228 1.512447-0.197498 2.296299-0.197498l-29.386284 0 0 1.379417c-20.875446 2.407839-40.7194 7.975649-59.019185 16.155958l92.092441 174.514639 156.103314 82.167395c16.630772-26.980491 26.322505-58.271148 26.322505-91.771123C884.22456 595.011622 800.227494 514.311649 695.816492 512.197498z" fill="#e53b16" p-id="5646"></path><path d="M698.111768 433.637258c-146.06468 0-264.475534 118.410853-264.475534 264.475534 0 62.440098 21.765723 119.722732 57.951877 164.966169l8.214079 9.617032c48.465828 55.006801 119.235638 89.892333 198.309578 89.892333 146.06468 0 264.475534-118.410853 264.475534-264.475534S844.176448 433.637258 698.111768 433.637258zM864.015286 850.161766l-27.704992-27.704992c-8.770757 9.740852-18.522865 18.542308-29.155017 26.25599l27.961842 27.961842c-35.553751 27.319206-79.413678 44.177152-127.20924 46.238091L707.907878 883.730303c-3.264347 0.168846-6.488785 0.493234-9.795087 0.493234-10.024308 0-19.790742-1.01512-29.386284-2.540869l0 39.588647c-47.026036-6.139837-89.39296-26.747177-122.663714-57.258075l27.704992-27.704992c-9.740852-8.770757-18.542308-18.522865-26.254967-29.155017l-27.961842 27.961842c-23.542182-30.637788-39.350217-67.423599-44.598754-107.618043l39.588647 0c-1.52575-9.595542-2.540869-19.361977-2.540869-29.386284 0-3.307326 0.325411-6.531763 0.493234-9.795087l-39.181371 0c2.060939-47.795563 18.918885-91.65549 46.238091-127.20924l27.961842 27.961842c7.712659-10.632151 16.515139-20.384259 26.254967-29.155017l-27.704992-27.704992c40.092114-36.766368 93.363388-59.391668 152.049998-59.391668 124.426871 0 225.294163 100.867292 225.294163 225.294163C923.405931 756.798379 900.780631 810.069653 864.015286 850.161766z" fill="#e53b16" p-id="5647"></path><path d="M296.500924 512l39.181371 0 0 39.181371-39.181371 0 0-39.181371Z" fill="#e53b16" p-id="5648"></path><path d="M355.273493 512l39.181371 0 0 39.181371-39.181371 0 0-39.181371Z" fill="#e53b16" p-id="5649"></path><path d="M237.729379 688.316681l0 39.181371 21.565155 0c-1.079588-6.40385-1.974981-12.881378-1.974981-19.591197 0-6.709819 0.895393-13.186324 1.974981-19.591197L237.729379 688.315658z" fill="#e53b16" p-id="5650"></path><path d="M355.273493 592.337723c6.40385-1.079588 12.880355-1.974981 19.591197-1.974981 6.709819 0 13.186324 0.895393 19.591197 1.974981L394.455887 570.772568l-39.181371 0L355.274516 592.337723z" fill="#e53b16" p-id="5651"></path><path d="M296.500924 609.953939l13.535271 0c7.883551-5.229095 16.581654-9.171893 25.6461-12.393261L335.682295 570.772568l-39.181371 0L296.500924 609.953939z" fill="#e53b16" p-id="5652"></path><path d="M276.910751 629.544113l-39.181371 0 0 39.181371 26.78811 0c3.220345-9.064446 7.164167-17.762549 12.393261-25.6461L276.910751 629.544113z" fill="#e53b16" p-id="5653"></path><path d="M237.729379 570.772568l39.181371 0 0 39.181371-39.181371 0 0-39.181371Z" fill="#e53b16" p-id="5654"></path><path d="M237.729379 512l39.181371 0 0 39.181371-39.181371 0 0-39.181371Z" fill="#e53b16" p-id="5655"></path><path d="M178.956811 570.772568l39.181371 0 0 39.181371-39.181371 0 0-39.181371Z" fill="#e53b16" p-id="5656"></path><path d="M178.956811 629.544113l39.181371 0 0 39.181371-39.181371 0 0-39.181371Z" fill="#e53b16" p-id="5657"></path><path d="M178.956811 747.089249l39.181371 0 0 39.181371-39.181371 0 0-39.181371Z" fill="#e53b16" p-id="5658"></path><path d="M178.956811 512l39.181371 0 0 39.181371-39.181371 0 0-39.181371Z" fill="#e53b16" p-id="5659"></path><path d="M570.772568 276.910751l0-39.181371 0-39.181371-39.181371 0L218.138182 198.548008l-39.181371 0 0 39.181371 0 39.181371 0 39.181371 39.181371 0 313.451992 0 39.181371 0L570.771545 276.910751zM531.590174 276.910751 218.138182 276.910751l0-39.181371 313.451992 0L531.590174 276.910751z" fill="#e53b16" p-id="5660"></path><path d="M178.956811 688.316681l39.181371 0 0 39.181371-39.181371 0 0-39.181371Z" fill="#e53b16" p-id="5661"></path><path d="M178.956811 805.861818l39.181371 0 0 39.181371-39.181371 0 0-39.181371Z" fill="#e53b16" p-id="5662"></path></svg>