<?xml version="1.0" standalone="no"?><!DOCTYPE svg PUBLIC "-//W3C//DTD SVG 1.1//EN" "http://www.w3.org/Graphics/SVG/1.1/DTD/svg11.dtd"><svg t="1717212102186" class="icon" viewBox="0 0 1024 1024" version="1.1" xmlns="http://www.w3.org/2000/svg" p-id="4390" xmlns:xlink="http://www.w3.org/1999/xlink" width="200" height="200"><path d="M289.795398 510.71734L51.289973 742.182801 21.423462 655.356587l208.638914-202.452279 59.733022 57.813032z" fill="#F7F7F7" p-id="4391"></path><path d="M558.167333 771.195983L319.661909 1002.661444 51.289973 742.182801l238.505425-231.465461 268.371935 260.478643z" fill="#E4E4E4" p-id="4392"></path><path d="M319.661909 337.064911l357.758137 347.304858-44.586435 43.519773-0.213332-0.213332-357.758137-347.091526z" fill="#FFB13B" p-id="4393"></path><path d="M632.833611 727.889542l-59.733022 57.813032-14.933256-14.506591-268.371935-260.478643-59.733022-57.813032-14.933256-14.506591 59.733022-57.813033 357.758137 347.091526 0.213332 0.213332zM990.378416 322.771652a40.063791 40.063791 0 0 1 0 57.813032L677.420046 684.369769 319.661909 337.064911 632.620279 33.279827a43.157109 43.157109 0 0 1 59.733022 0z" fill="#00A6FF" p-id="4394"></path><path d="M990.378416 322.771652L692.353301 33.279827a43.157109 43.157109 0 0 0-59.733022 0l-44.650434 43.327774 0.66133 0.447998 1.237327-1.194661a43.157109 43.157109 0 0 1 59.733022 0L947.711971 365.438097a39.957125 39.957125 0 0 1 5.439972 51.199733l37.226473-36.053146a40.063791 40.063791 0 0 0 0-57.813032z" fill="#2187E9" p-id="4395"></path><path d="M386.989558 402.429904L319.661909 337.064911l-44.799767 43.519773 68.010313 65.962324z" fill="#FFE45C" p-id="4396"></path><path d="M274.862142 380.584684l-59.733022 57.813033 14.933256 14.506591 54.101051 52.351727 58.709028-58.709027-68.010313-65.962324zM682.049355 107.370107L649.686857 75.946271a43.157109 43.157109 0 0 0-59.733023 0l-1.237326 1.194661-0.66133-0.341332 44.565101-43.519773L319.661909 337.064911l67.327649 65.364993z" fill="#31C4FF" p-id="4397"></path><path d="M588.055178 76.7996l0.66133 0.447998 1.237326-1.194661a43.157109 43.157109 0 0 1 59.733023 0l32.362498 31.423837 42.666444-42.666445L692.353301 33.279827a43.157109 43.157109 0 0 0-59.733022 0l-44.650434 43.327774z" fill="#00A6FF" p-id="4398"></path><path d="M257.3049 542.247842l32.490498-31.530502-59.733022-57.813032-32.490498 31.530502 0.490664 0.469331 59.242358 57.343701z" fill="#E4E4E4" p-id="4399"></path><path d="M289.795398 510.71734l-32.490498 31.530502 0.490664 0.469331 267.881272 260.009313 32.490497-31.530503-268.371935-260.478643z" fill="#CFCFCF" p-id="4400"></path><path d="M670.423674 231.597331a48.767746 35.029151 44.98 1 0 49.521405-49.55599 48.767746 35.029151 44.98 1 0-49.521405 49.55599Z" fill="#F6FAFD" p-id="4401"></path><path d="M620.849765 262.188543a24.490539 17.599908 44.98 1 0 24.881339-24.898715 24.490539 17.599908 44.98 1 0-24.881339 24.898715Z" fill="#F6FAFD" p-id="4402"></path><path d="M410.328103 219.326858l43.946438-42.666445 29.717179 30.634507-43.967771 42.666445z" p-id="4403"></path><path d="M1005.247671 307.369066L707.115891 18.026573a64.575664 64.575664 0 0 0-89.343535 0L497.154318 134.99663l29.866511 30.613174 120.554039-116.991391a21.589221 21.589221 0 0 1 29.866511 0l298.110447 289.363827a18.773236 18.773236 0 0 1 0 27.263858L677.334713 654.631257 350.18975 337.064911l48.831746-47.231754-29.866512-30.613174-168.788454 163.881813a20.949224 20.949224 0 0 0-0.703996 29.610513L6.490207 640.124666a21.333222 21.333222 0 0 0-5.333306 22.229218l29.866511 86.804881a21.333222 21.333222 0 0 0 5.311973 8.383956l268.371935 260.435977a21.333222 21.333222 0 0 0 14.933256 6.015969 4.266644 4.266644 0 0 0 0.447997 0h597.330223v-42.666445H372.184302l116.116729-112.68208-29.717179-30.634507-139.007276 134.911298L81.881814 742.246801l45.610429-44.266436-29.717178-30.634507-37.26914 36.266477L45.999334 661.329889l184.127041-178.687069 28.991849 28.13852L134.48954 631.634044l29.866511 30.634507 125.482013-121.791366L527.447493 771.17465l-46.933089 45.503763 29.717179 30.634507 47.807751-46.399758a21.333222 21.333222 0 0 0 29.695845 0l417.533826-405.05389a61.397014 61.397014 0 0 0 0-88.490206zM646.721539 684.369769l-14.10126 13.674595-327.144963-317.502346 14.10126-13.674595z m-73.727616 71.551627L245.84896 438.41905l28.991849-28.13852 327.144963 317.481013zM960.08524 981.328222h42.666444v42.666445h-42.666444z" p-id="4404"></path></svg>